<svg xmlns="http://www.w3.org/2000/svg" width="120" height="40" viewBox="0 0 120 40"><title>rosatom_text_white_ru</title><g id="cb872147-c75f-43fd-9706-51b0c0f8574" data-name="RA_text"><g id="0a9299b2-08ef-4d03-aa65-5e9a3982563" data-name="RA Text white">
<path d="M49.5,24.91H47.39V15.06h3.39c2.48,0,4,1,4,3.29s-1.6,3.48-4.23,3.48H49.5Zm0-4.94h1.15c1.26,0,2-.49,2-1.53s-.72-1.52-2-1.52H49.46Z" style="fill:#fff"/><path d="M56.35,20c0-3.3,2-5.09,4.72-5.09,3,0,4.8,1.93,4.8,5.09,0,3.5-2,5.09-4.74,5.09-2.85,0-4.78-1.79-4.78-5.09m7.28,0c0-2.24-1-3.23-2.56-3.23s-2.49,1-2.49,3.23,1.14,3.24,2.62,3.24,2.43-1,2.43-3.24" style="fill:#fff"/><path d="M75.26,24.51a5.22,5.22,0,0,1-2.66.56c-3,0-5-1.73-5-5,0-3.39,2-5.22,5.2-5.22a6.21,6.21,0,0,1,2.48.46l-.46,1.77a5.9,5.9,0,0,0-1.72-.3c-1.94,0-3.26,1-3.26,3.15a2.9,2.9,0,0,0,3.25,3.14,5,5,0,0,0,1.74-.38Z" style="fill:#fff"/><path d="M83,22.28h-4.2l-1,2.63H76.54l3.75-9.84h1.27l3.69,9.84H83.93Zm-3.8-1.15h3.39L80.93,16.5h-.06Z" style="fill:#fff"/><polygon points="89.64 24.91 88.38 24.91 88.38 16.24 85.46 16.24 85.46 15.06 92.55 15.06 92.55 16.24 89.64 16.24 89.64 24.91" style="fill:#fff"/><path d="M93.89,20c0-3.15,1.82-5.06,4.42-5.06,2.93,0,4.5,2.08,4.5,5.06,0,3.35-1.88,5.06-4.46,5.06-2.73,0-4.46-1.94-4.46-5.06m7.57,0c0-2.7-1.21-3.88-3.15-3.88-1.73,0-3.06,1.25-3.06,3.88s1.29,3.88,3.23,3.88,3-1.34,3-3.88" style="fill:#fff"/><polygon points="115.03 24.91 113.77 24.91 113.17 17.21 110.68 24.91 109.35 24.91 106.88 17.24 106.26 24.91 105 24.91 105.84 15.06 107.39 15.06 110.04 23.53 112.64 15.06 114.19 15.06 115.03 24.91" style="fill:#fff"/></g></g></svg>