<svg xmlns="http://www.w3.org/2000/svg" width="40" height="40" viewBox="0 0 40 40"><title>rosatom_logo_white_ru</title><g id="cb872147-c75f-43fd-9706-51b0c0f85745" data-name="Logo"><g id="0a9299b2-08ef-4d03-aa65-5e9a39825633" data-name="RA Logo"><path d="M23.32,22.88A4.2,4.2,0,1,1,23,16.95a4.18,4.18,0,0,1,.29,5.94" style="fill:#fff"/><path d="M10.5,20.21s2.34-1.19,3.69-6.47S20.58,6,20.58,6,9.76-4.75,1.57,12.09a12.59,12.59,0,0,1,8.93,8.11" style="fill:#fff"/><path d="M11.49,1.85S19.82.21,24.76,10.66c0,0,5.76,1.86,10.82-3.48,0,0-8.46-11.57-24.09-5.33" style="fill:#fff"/><path d="M25.09,28.12s-2.2-1.43-7.45,0-9.9-1.66-9.9-1.66S3.85,41.24,22.53,39.92a12.59,12.59,0,0,1,2.56-11.79" style="fill:#fff"/><path d="M8.7,36.45s-5.59-6.4,1-15.9c0,0-1.26-5.92-8.43-7.62,0,0-5.79,13.12,7.44,23.53" style="fill:#fff"/><path d="M24.68,11.6s-.14,2.62,3.77,6.43S32,27.43,32,27.43s14.7-4,4.21-19.52A12.59,12.59,0,0,1,24.68,11.6" style="fill:#fff"/><path d="M40.09,21.62s-2.75,8-14.26,7.1c0,0-4.49,4.05-2.39,11.11,0,0,14.26-1.55,16.65-18.21" style="fill:#fff"/></g></g></svg>